<?xml version="1.0" encoding="utf-8"?>
<!-- Generator: Adobe Illustrator 23.0.1, SVG Export Plug-In . SVG Version: 6.00 Build 0)  -->
<svg version="1.1" id="DragonFruit" xmlns="http://www.w3.org/2000/svg" xmlns:xlink="http://www.w3.org/1999/xlink" x="0px"
	 y="0px" viewBox="0 0 288 292.04" style="enable-background:new 0 0 288 292.04;" xml:space="preserve">
<style type="text/css">
	.st0{fill:#A70094;stroke:#000000;stroke-miterlimit:10;}
	.st1{fill:#FFFFFF;stroke:#000000;stroke-miterlimit:10;}
	.st2{stroke:#000000;stroke-miterlimit:10;}
</style>
<circle id="circle_outside" class="st0" cx="145.01" cy="146.34" r="135.98"/>
<circle id="circle_inside" class="st1" cx="145.97" cy="144.82" r="122.53"/>
<g id="Seed">
	
		<ellipse id="dot_6_" transform="matrix(0.6691 -0.7431 0.7431 0.6691 -63.2194 243.1021)" class="st2" cx="241.4" cy="192.55" rx="1.06" ry="2.93"/>
	
		<ellipse id="dot_7_" transform="matrix(0.6691 -0.7431 0.7431 0.6691 -85.7528 238.293)" class="st2" cx="224.73" cy="215.45" rx="1.06" ry="2.93"/>
	
		<ellipse id="dot_10_" transform="matrix(0.766 -0.6428 0.6428 0.766 -127.8115 109.324)" class="st2" cx="86.27" cy="230.23" rx="2.93" ry="1.06"/>
	
		<ellipse id="dot_12_" transform="matrix(0.454 -0.891 0.891 0.454 -157.2515 232.3639)" class="st2" cx="110.97" cy="244.49" rx="2.93" ry="1.06"/>
	
		<ellipse id="dot_13_" transform="matrix(0.8746 -0.4848 0.4848 0.8746 -92.0183 59.4443)" class="st2" cx="68.92" cy="207.63" rx="2.93" ry="1.06"/>
	
		<ellipse id="dot_15_" transform="matrix(0.3746 -0.9272 0.9272 0.3746 -149.4207 287.452)" class="st2" cx="138.37" cy="254.49" rx="2.93" ry="1.06"/>
	
		<ellipse id="dot_16_" transform="matrix(0.1564 -0.9877 0.9877 0.1564 54.1493 385.5097)" class="st2" cx="252.75" cy="161.06" rx="1.06" ry="2.93"/>
	
		<ellipse id="dot_18_" transform="matrix(0.9136 -0.4067 0.4067 0.9136 -70.1476 37.5755)" class="st2" cx="53.32" cy="183.8" rx="2.93" ry="1.06"/>
	
		<ellipse id="dot_20_" transform="matrix(0.8572 -0.515 0.515 0.8572 -92.9006 138.7649)" class="st2" cx="203.76" cy="236.89" rx="1.06" ry="2.93"/>
	
		<ellipse id="dot_21_" transform="matrix(0.9903 -0.1392 0.1392 0.9903 -21.3783 7.8729)" class="st2" cx="45.6" cy="156.77" rx="2.93" ry="1.06"/>
	
		<ellipse id="dot_23_" transform="matrix(0.9903 -0.1392 0.1392 0.9903 -33.1766 26.4745)" class="st2" cx="172.68" cy="250.42" rx="1.06" ry="2.93"/>
	
		<ellipse id="dot_29_" transform="matrix(0.6691 -0.7431 0.7431 0.6691 -52.7613 220.8086)" class="st2" cx="221.59" cy="169.66" rx="1.06" ry="2.93"/>
	
		<ellipse id="dot_30_" transform="matrix(0.8572 -0.515 0.515 0.8572 -74.78 131.1776)" class="st2" cx="199.14" cy="200.43" rx="1.06" ry="2.93"/>
	
		<ellipse id="dot_31_" transform="matrix(0.9903 -0.1392 0.1392 0.9903 -29.0721 25.6012)" class="st2" cx="168.49" cy="220.64" rx="1.06" ry="2.93"/>
	
		<ellipse id="dot_34_" transform="matrix(0.9136 -0.4067 0.4067 0.9136 -59.0908 44.102)" class="st2" cx="74.2" cy="161.06" rx="2.93" ry="1.06"/>
	
		<ellipse id="dot_35_" transform="matrix(0.766 -0.6428 0.6428 0.766 -101.3176 97.4909)" class="st2" cx="83.26" cy="187.92" rx="2.93" ry="1.06"/>
	
		<ellipse id="dot_36_" transform="matrix(0.454 -0.891 0.891 0.454 -126.8586 213.02)" class="st2" cx="110.38" cy="210.02" rx="2.93" ry="1.06"/>
	
		<ellipse id="dot_37_" transform="matrix(0.3256 -0.9455 0.9455 0.3256 -117.8194 281.4297)" class="st2" cx="138.37" cy="223.31" rx="2.93" ry="1.06"/>
	
		<ellipse id="dot_39_" transform="matrix(0.9136 -0.4067 0.4067 0.9136 -55.7831 55.2425)" class="st2" cx="102.06" cy="158.85" rx="2.93" ry="1.06"/>
	
		<ellipse id="dot_40_" transform="matrix(0.9903 -0.1392 0.1392 0.9903 -24.2229 23.9945)" class="st2" cx="159.43" cy="185.17" rx="1.06" ry="2.93"/>
	
		<ellipse id="dot_47_" transform="matrix(0.454 -0.891 0.891 0.454 -92.997 209.2416)" class="st2" cx="124.23" cy="180.5" rx="2.93" ry="1.06"/>
	
		<ellipse id="dot_48_" transform="matrix(0.6691 -0.7431 0.7431 0.6691 -57.8002 192.3067)" class="st2" cx="187.07" cy="161.06" rx="1.06" ry="2.93"/>
	
		<ellipse id="dot_51_" transform="matrix(0.8572 -0.515 0.515 0.8572 -53.1612 106.1272)" class="st2" cx="164.78" cy="148.92" rx="1.06" ry="2.93"/>
	
		<ellipse id="dot_52_" transform="matrix(0.766 -0.6428 0.6428 0.766 -63.8801 118.2655)" class="st2" cx="130.52" cy="146.88" rx="2.93" ry="1.06"/>
	
		<ellipse id="dot" transform="matrix(0.6691 -0.7431 0.7431 0.6691 -43.2649 72.7998)" class="st2" cx="60.12" cy="84.99" rx="1.06" ry="2.93"/>
	
		<ellipse id="dot_4_" transform="matrix(0.8572 -0.515 0.515 0.8572 -11.5364 58.1865)" class="st2" cx="99.15" cy="49.89" rx="1.06" ry="2.93"/>
	
		<ellipse id="dot_8_" transform="matrix(0.454 -0.891 0.891 0.454 61.7433 190.5512)" class="st2" cx="186.35" cy="44.9" rx="2.93" ry="1.06"/>
	
		<ellipse id="dot_9_" transform="matrix(0.6691 -0.7431 0.7431 0.6691 -20.5332 77.6393)" class="st2" cx="76.92" cy="61.88" rx="1.06" ry="2.93"/>
	
		<ellipse id="dot_2_" transform="matrix(0.454 -0.891 0.891 0.454 65.7719 215.4426)" class="st2" cx="208.67" cy="54.06" rx="2.93" ry="1.06"/>
	
		<ellipse id="dot_3_" transform="matrix(0.766 -0.6428 0.6428 0.766 8.9893 160.3369)" class="st2" cx="224.74" cy="67.82" rx="2.93" ry="1.06"/>
	
		<ellipse id="dot_14_" transform="matrix(0.225 -0.9744 0.9744 0.225 88.0354 189.3065)" class="st2" cx="163.02" cy="39.31" rx="2.93" ry="1.06"/>
	
		<ellipse id="dot_17_" transform="matrix(0.2079 -0.9781 0.9781 0.2079 -63.4676 134.3279)" class="st2" cx="51.21" cy="106.35" rx="1.06" ry="2.93"/>
	
		<ellipse id="dot_5_" transform="matrix(0.8746 -0.4848 0.4848 0.8746 -12.0463 126.7999)" class="st2" cx="239.13" cy="86.69" rx="2.93" ry="1.06"/>
	
		<ellipse id="dot_19_" transform="matrix(0.1564 -0.9877 0.9877 0.1564 -91.6355 156.331)" class="st2" cx="45.7" cy="131.81" rx="1.06" ry="2.93"/>
	
		<ellipse id="dot_11_" transform="matrix(0.8746 -0.4848 0.4848 0.8746 -21.2948 134.7403)" class="st2" cx="249.85" cy="108.54" rx="2.93" ry="1.06"/>
	
		<ellipse id="dot_22_" transform="matrix(0.9903 -0.1392 0.1392 0.9903 -15.9448 36.8286)" class="st2" cx="255.32" cy="132.41" rx="2.93" ry="1.06"/>
	
		<ellipse id="dot_1_" transform="matrix(0.9903 -0.1392 0.1392 0.9903 -4.3161 18.3228)" class="st2" cx="128.84" cy="40.02" rx="1.06" ry="2.93"/>
	
		<ellipse id="dot_24_" transform="matrix(0.9903 -0.1392 0.1392 0.9903 -7.1839 19.8578)" class="st2" cx="138.38" cy="61.29" rx="1.06" ry="2.93"/>
	
		<ellipse id="dot_25_" transform="matrix(0.454 -0.891 0.891 0.454 37.3085 186.7592)" class="st2" cx="171.04" cy="62.94" rx="2.93" ry="1.06"/>
	
		<ellipse id="dot_26_" transform="matrix(0.766 -0.6428 0.6428 0.766 -3.2164 147.6728)" class="st2" cx="201.24" cy="78.25" rx="2.93" ry="1.06"/>
	
		<ellipse id="dot_27_" transform="matrix(0.8746 -0.4848 0.4848 0.8746 -20.7152 117.5371)" class="st2" cx="216.88" cy="98.82" rx="2.93" ry="1.06"/>
	
		<ellipse id="dot_28_" transform="matrix(0.9903 -0.1392 0.1392 0.9903 -15.1998 32.5017)" class="st2" cx="224.76" cy="124.92" rx="2.93" ry="1.06"/>
	
		<ellipse id="dot_32_" transform="matrix(0.6691 -0.7431 0.7431 0.6691 -44.3377 94.8131)" class="st2" cx="84.31" cy="97.2" rx="1.06" ry="2.93"/>
	
		<ellipse id="dot_33_" transform="matrix(0.1564 -0.9877 0.9877 0.1564 -66.1616 180.1359)" class="st2" cx="72.37" cy="128.8" rx="1.06" ry="2.93"/>
	
		<ellipse id="dot_38_" transform="matrix(0.6947 -0.7193 0.7193 0.6947 -20.3911 100.9497)" class="st2" cx="108.73" cy="74.5" rx="1.06" ry="2.93"/>
	
		<ellipse id="dot_41_" transform="matrix(0.9903 -0.1392 0.1392 0.9903 -16.636 29.4688)" class="st2" cx="202.36" cy="133.67" rx="2.93" ry="1.06"/>
	
		<ellipse id="dot_42_" transform="matrix(0.454 -0.891 0.891 0.454 16.7991 206.2223)" class="st2" cx="176.66" cy="89.4" rx="2.93" ry="1.06"/>
	
		<ellipse id="dot_43_" transform="matrix(0.6947 -0.7193 0.7193 0.6947 -34.4595 113.2304)" class="st2" cx="116.16" cy="97.21" rx="1.06" ry="2.93"/>
	
		<ellipse id="dot_44_" transform="matrix(0.1564 -0.9877 0.9877 0.1564 -37.2682 206.1872)" class="st2" cx="102.07" cy="124.91" rx="1.06" ry="2.93"/>
	
		<ellipse id="dot_45_" transform="matrix(0.9903 -0.1392 0.1392 0.9903 -11.0336 21.0337)" class="st2" cx="144.86" cy="89.4" rx="1.06" ry="2.93"/>
	
		<ellipse id="dot_46_" transform="matrix(0.8746 -0.4848 0.4848 0.8746 -28.5283 106.7724)" class="st2" cx="192.16" cy="108.54" rx="2.93" ry="1.06"/>
	
		<ellipse id="dot_50_" transform="matrix(0.454 -0.891 0.891 0.454 -14.7319 206.8123)" class="st2" cx="161.38" cy="115.43" rx="2.93" ry="1.06"/>
	
		<ellipse id="dot_49_" transform="matrix(0.1564 -0.9877 0.9877 0.1564 -12.6491 230.8736)" class="st2" cx="128.83" cy="122.84" rx="1.06" ry="2.93"/>
</g>
</svg>
