<svg id="f8372c06-31d0-40d7-9fc7-47f77a9e7396" data-name="DragonFruit" xmlns="http://www.w3.org/2000/svg" viewBox="0 0 273 273"><defs><style>.ac5823d5-e3b5-4a43-a700-e68e247c887a{fill:#a70094;}.a1eecb6d-1ea4-4dde-a807-96dd269dbd37,.ac5823d5-e3b5-4a43-a700-e68e247c887a,.aca55903-9c29-4ad8-88fe-24459f1bd5bf{stroke:#000;stroke-miterlimit:10;}.aca55903-9c29-4ad8-88fe-24459f1bd5bf{fill:#fff;}</style></defs><title>dragonFruit</title><circle id="b13a0d93-1b43-4ced-8115-485feb81c0af" data-name="circle outside" class="ac5823d5-e3b5-4a43-a700-e68e247c887a" cx="136.5" cy="136.5" r="136"/><circle id="fb0653ff-25e7-4fc4-a1d3-67c80a6121d1" data-name="circle inside" class="aca55903-9c29-4ad8-88fe-24459f1bd5bf" cx="137.4" cy="135" r="122.5"/><g id="a8460ff4-7ed3-4d8b-be1a-d72ba06a3c94" data-name="Seed"><ellipse id="b3670aec-f6e6-4a51-abec-f97fbca7844b" data-name="dot" class="a1eecb6d-1ea4-4dde-a807-96dd269dbd37" cx="241.4" cy="192.6" rx="1.1" ry="2.9" transform="translate(-71.8 233.2) rotate(-48)"/><ellipse id="b1c92c84-f20b-45a3-9e55-02703b2cbca5" data-name="dot" class="a1eecb6d-1ea4-4dde-a807-96dd269dbd37" cx="224.7" cy="215.5" rx="1.1" ry="2.9" transform="translate(-94.3 228.4) rotate(-48)"/><ellipse id="b24f8092-171d-4a41-b309-6131caab5d1d" data-name="dot" class="a1eecb6d-1ea4-4dde-a807-96dd269dbd37" cx="86.3" cy="230.2" rx="2.9" ry="1.1" transform="translate(-136.3 99.5) rotate(-40)"/><ellipse id="af38d51f-6ac5-4802-8a1c-c2cac53d5110" data-name="dot" class="a1eecb6d-1ea4-4dde-a807-96dd269dbd37" cx="111" cy="244.5" rx="2.9" ry="1.1" transform="translate(-165.8 222.5) rotate(-63)"/><ellipse id="ab12fcb3-4154-4cba-bc43-27bd4bca252c" data-name="dot" class="a1eecb6d-1ea4-4dde-a807-96dd269dbd37" cx="68.9" cy="207.6" rx="2.9" ry="1.1" transform="translate(-100.5 49.6) rotate(-29)"/><ellipse id="aff0e612-66d0-4a7a-b73d-6d621ddca4e9" data-name="dot" class="a1eecb6d-1ea4-4dde-a807-96dd269dbd37" cx="138.4" cy="254.5" rx="2.9" ry="1.1" transform="translate(-157.9 277.6) rotate(-68)"/><ellipse id="e643b630-1d1d-41fe-abcf-260a182becc1" data-name="dot" class="a1eecb6d-1ea4-4dde-a807-96dd269dbd37" cx="252.8" cy="161.1" rx="1.1" ry="2.9" transform="translate(45.6 375.7) rotate(-81)"/><ellipse id="bb8e9c74-3bb3-410f-8b0d-841f6cff3cf6" data-name="dot" class="a1eecb6d-1ea4-4dde-a807-96dd269dbd37" cx="53.3" cy="183.8" rx="2.9" ry="1.1" transform="translate(-78.7 27.7) rotate(-24)"/><ellipse id="becd528b-e17c-4fa1-b00e-27812c9b0356" data-name="dot" class="a1eecb6d-1ea4-4dde-a807-96dd269dbd37" cx="203.8" cy="236.9" rx="1.1" ry="2.9" transform="matrix(0.86, -0.51, 0.51, 0.86, -101.43, 128.91)"/><ellipse id="a94e6e22-01ab-449d-a155-49043bbf5c53" data-name="dot" class="a1eecb6d-1ea4-4dde-a807-96dd269dbd37" cx="45.6" cy="156.8" rx="2.9" ry="1.1" transform="translate(-29.9 -2) rotate(-8)"/><ellipse id="b9afeffe-c34f-4ad9-b10d-fc153df89e54" data-name="dot" class="a1eecb6d-1ea4-4dde-a807-96dd269dbd37" cx="172.7" cy="250.4" rx="1.1" ry="2.9" transform="translate(-41.7 16.6) rotate(-8)"/><ellipse id="b3992e67-b089-4d2a-a2e7-fb436c50df15" data-name="dot" class="a1eecb6d-1ea4-4dde-a807-96dd269dbd37" cx="221.6" cy="169.7" rx="1.1" ry="2.9" transform="translate(-61.3 210.9) rotate(-48)"/><ellipse id="b46293ee-6bf7-4170-9c50-748049d3be00" data-name="dot" class="a1eecb6d-1ea4-4dde-a807-96dd269dbd37" cx="199.1" cy="200.4" rx="1.1" ry="2.9" transform="matrix(0.86, -0.51, 0.51, 0.86, -83.31, 121.32)"/><ellipse id="af66641e-a569-497a-83b3-fc7e7eb7219c" data-name="dot" class="a1eecb6d-1ea4-4dde-a807-96dd269dbd37" cx="168.5" cy="220.6" rx="1.1" ry="2.9" transform="translate(-37.6 15.7) rotate(-8)"/><ellipse id="ea14612e-b7f5-4c1b-b044-5b12631ccdc9" data-name="dot" class="a1eecb6d-1ea4-4dde-a807-96dd269dbd37" cx="74.2" cy="161.1" rx="2.9" ry="1.1" transform="translate(-67.6 34.2) rotate(-24)"/><ellipse id="ab2a2c66-d30a-4779-bcd3-f641dbe2594f" data-name="dot" class="a1eecb6d-1ea4-4dde-a807-96dd269dbd37" cx="83.3" cy="187.9" rx="2.9" ry="1.1" transform="translate(-109.8 87.6) rotate(-40)"/><ellipse id="f9ffd1ac-6d97-443f-a3c7-34b002dc4e13" data-name="dot" class="a1eecb6d-1ea4-4dde-a807-96dd269dbd37" cx="110.4" cy="210" rx="2.9" ry="1.1" transform="translate(-135.4 203.2) rotate(-63)"/><ellipse id="e7514aff-e55b-4fea-8d46-85040da26e21" data-name="dot" class="a1eecb6d-1ea4-4dde-a807-96dd269dbd37" cx="138.4" cy="223.3" rx="2.9" ry="1.1" transform="translate(-126.4 271.6) rotate(-71)"/><ellipse id="b693beca-7773-43c3-80eb-4616c6c306ae" data-name="dot" class="a1eecb6d-1ea4-4dde-a807-96dd269dbd37" cx="102.1" cy="158.9" rx="2.9" ry="1.1" transform="translate(-64.3 45.4) rotate(-24)"/><ellipse id="f9e76461-fdd9-4b32-8182-f3d2dcc177b3" data-name="dot" class="a1eecb6d-1ea4-4dde-a807-96dd269dbd37" cx="159.4" cy="185.2" rx="1.1" ry="2.9" transform="translate(-32.8 14.1) rotate(-8)"/><ellipse id="ffaf18a4-d0d1-496f-9db0-33bfbb1af569" data-name="dot" class="a1eecb6d-1ea4-4dde-a807-96dd269dbd37" cx="124.2" cy="180.5" rx="2.9" ry="1.1" transform="translate(-101.5 199.4) rotate(-63)"/><ellipse id="b071e211-7fb1-43d7-a2d3-69347119b606" data-name="dot" class="a1eecb6d-1ea4-4dde-a807-96dd269dbd37" cx="187.1" cy="161.1" rx="1.1" ry="2.9" transform="translate(-66.3 182.4) rotate(-48)"/><ellipse id="e53315a0-0159-4a2b-a00b-ff7d7208135b" data-name="dot" class="a1eecb6d-1ea4-4dde-a807-96dd269dbd37" cx="164.8" cy="148.9" rx="1.1" ry="2.9" transform="matrix(0.86, -0.51, 0.51, 0.86, -61.69, 96.27)"/><ellipse id="a61ecc1e-3035-442a-ba7a-9c334ed84fc2" data-name="dot" class="a1eecb6d-1ea4-4dde-a807-96dd269dbd37" cx="130.5" cy="146.9" rx="2.9" ry="1.1" transform="translate(-72.4 108.4) rotate(-40)"/><ellipse id="b0021ce6-58da-4c7d-8bd9-01909b88b5c9" data-name="dot" class="a1eecb6d-1ea4-4dde-a807-96dd269dbd37" cx="60.1" cy="85" rx="1.1" ry="2.9" transform="translate(-51.8 62.9) rotate(-48)"/><ellipse id="b65adb21-b34d-4344-ad9f-799c3d31cc19" data-name="dot" class="a1eecb6d-1ea4-4dde-a807-96dd269dbd37" cx="99.1" cy="49.9" rx="1.1" ry="2.9" transform="matrix(0.86, -0.51, 0.51, 0.86, -20.06, 48.33)"/><ellipse id="a1f81a38-3f71-4c7b-a6e3-b4728fba59f1" data-name="dot" class="a1eecb6d-1ea4-4dde-a807-96dd269dbd37" cx="186.4" cy="44.9" rx="2.9" ry="1.1" transform="translate(53.2 180.7) rotate(-63)"/><ellipse id="a0437ad2-567f-4f4c-a70c-25dbb4f29ae2" data-name="dot" class="a1eecb6d-1ea4-4dde-a807-96dd269dbd37" cx="76.9" cy="61.9" rx="1.1" ry="2.9" transform="translate(-29.1 67.8) rotate(-48)"/><ellipse id="e57bff94-3020-4f1f-9a0e-174a223ba9a8" data-name="dot" class="a1eecb6d-1ea4-4dde-a807-96dd269dbd37" cx="208.7" cy="54.1" rx="2.9" ry="1.1" transform="translate(57.2 205.6) rotate(-63)"/><ellipse id="b9ea950c-e6f0-4350-8c19-331c9f66e5d7" data-name="dot" class="a1eecb6d-1ea4-4dde-a807-96dd269dbd37" cx="224.7" cy="67.8" rx="2.9" ry="1.1" transform="translate(0.5 150.5) rotate(-40)"/><ellipse id="accc0234-586f-4f18-aff0-57cdf6b9c517" data-name="dot" class="a1eecb6d-1ea4-4dde-a807-96dd269dbd37" cx="163" cy="39.3" rx="2.9" ry="1.1" transform="translate(79.5 179.4) rotate(-77)"/><ellipse id="a4a6069d-d408-40ad-8fd7-1079427a4fc6" data-name="dot" class="a1eecb6d-1ea4-4dde-a807-96dd269dbd37" cx="51.2" cy="106.3" rx="1.1" ry="2.9" transform="translate(-72 124.5) rotate(-78)"/><ellipse id="e31f0b07-8b69-40fa-88c4-156ace772f54" data-name="dot" class="a1eecb6d-1ea4-4dde-a807-96dd269dbd37" cx="239.1" cy="86.7" rx="2.9" ry="1.1" transform="translate(-20.6 116.9) rotate(-29)"/><ellipse id="f5504e71-7cc8-4f7e-b177-5c658ae97a3c" data-name="dot" class="a1eecb6d-1ea4-4dde-a807-96dd269dbd37" cx="45.7" cy="131.8" rx="1.1" ry="2.9" transform="matrix(0.16, -0.99, 0.99, 0.16, -100.16, 146.47)"/><ellipse id="aaa5f032-2b2f-4741-b07c-b2778ba1f9d1" data-name="dot" class="a1eecb6d-1ea4-4dde-a807-96dd269dbd37" cx="249.8" cy="108.5" rx="2.9" ry="1.1" transform="translate(-29.8 124.9) rotate(-29)"/><ellipse id="b06576f5-c8aa-47b8-8541-68e36680e142" data-name="dot" class="a1eecb6d-1ea4-4dde-a807-96dd269dbd37" cx="255.3" cy="132.4" rx="2.9" ry="1.1" transform="translate(-24.5 27) rotate(-8)"/><ellipse id="f65ac6e0-d8cc-4478-bb90-4fec6affcfa7" data-name="dot" class="a1eecb6d-1ea4-4dde-a807-96dd269dbd37" cx="128.8" cy="40" rx="1.1" ry="2.9" transform="translate(-12.8 8.5) rotate(-8)"/><ellipse id="b3252701-31a5-4192-86a1-806112ecfd84" data-name="dot" class="a1eecb6d-1ea4-4dde-a807-96dd269dbd37" cx="138.4" cy="61.3" rx="1.1" ry="2.9" transform="translate(-15.7 10) rotate(-8)"/><ellipse id="f7063061-641e-443d-8cb7-0ce8d31c3c17" data-name="dot" class="a1eecb6d-1ea4-4dde-a807-96dd269dbd37" cx="171" cy="62.9" rx="2.9" ry="1.1" transform="translate(28.8 176.9) rotate(-63)"/><ellipse id="bf2ae848-5022-4490-b4c0-2a4d8057c7b1" data-name="dot" class="a1eecb6d-1ea4-4dde-a807-96dd269dbd37" cx="201.2" cy="78.3" rx="2.9" ry="1.1" transform="translate(-11.7 137.8) rotate(-40)"/><ellipse id="a903c023-a47f-40ae-b009-83dc4621f227" data-name="dot" class="a1eecb6d-1ea4-4dde-a807-96dd269dbd37" cx="216.9" cy="98.8" rx="2.9" ry="1.1" transform="translate(-29.2 107.7) rotate(-29)"/><ellipse id="b353bd17-7260-4188-8c9c-dce57c452565" data-name="dot" class="a1eecb6d-1ea4-4dde-a807-96dd269dbd37" cx="224.8" cy="124.9" rx="2.9" ry="1.1" transform="translate(-23.7 22.6) rotate(-8)"/><ellipse id="b4c88d26-4b42-494d-90ec-0279985d0e78" data-name="dot" class="a1eecb6d-1ea4-4dde-a807-96dd269dbd37" cx="84.3" cy="97.2" rx="1.1" ry="2.9" transform="translate(-52.9 84.9) rotate(-48)"/><ellipse id="ff29ffd9-285b-4c17-83ad-94d67d716e9c" data-name="dot" class="a1eecb6d-1ea4-4dde-a807-96dd269dbd37" cx="72.4" cy="128.8" rx="1.1" ry="2.9" transform="translate(-74.7 170.3) rotate(-81)"/><ellipse id="a3e28a71-9a7b-473d-b6b4-a238493251b9" data-name="dot" class="a1eecb6d-1ea4-4dde-a807-96dd269dbd37" cx="108.7" cy="74.5" rx="1.1" ry="2.9" transform="translate(-28.9 91.1) rotate(-46)"/><ellipse id="a982f15c-8414-499d-b49f-b7f6fd772340" data-name="dot" class="a1eecb6d-1ea4-4dde-a807-96dd269dbd37" cx="202.4" cy="133.7" rx="2.9" ry="1.1" transform="translate(-25.2 19.6) rotate(-8)"/><ellipse id="f8572a46-b813-45be-8667-325a9e187cf5" data-name="dot" class="a1eecb6d-1ea4-4dde-a807-96dd269dbd37" cx="176.7" cy="89.4" rx="2.9" ry="1.1" transform="translate(8.3 196.4) rotate(-63)"/><ellipse id="fe7b2d3c-0263-4d17-9da4-a11dffdc4051" data-name="dot" class="a1eecb6d-1ea4-4dde-a807-96dd269dbd37" cx="116.2" cy="97.2" rx="1.1" ry="2.9" transform="translate(-43 103.4) rotate(-46)"/><ellipse id="b73f5d06-5e17-4983-8dce-4b2c679c45a3" data-name="dot" class="a1eecb6d-1ea4-4dde-a807-96dd269dbd37" cx="102.1" cy="124.9" rx="1.1" ry="2.9" transform="translate(-45.8 196.3) rotate(-81)"/><ellipse id="b060dd4e-a410-4211-8f0a-7717c468bcc9" data-name="dot" class="a1eecb6d-1ea4-4dde-a807-96dd269dbd37" cx="144.9" cy="89.4" rx="1.1" ry="2.9" transform="translate(-19.6 11.2) rotate(-8)"/><ellipse id="a44c3479-6830-4053-a7c9-1d67f8162fd0" data-name="dot" class="a1eecb6d-1ea4-4dde-a807-96dd269dbd37" cx="192.2" cy="108.5" rx="2.9" ry="1.1" transform="translate(-37.1 96.9) rotate(-29)"/><ellipse id="a477dc4a-ae7f-4b31-b11f-7324e1a310ff" data-name="dot" class="a1eecb6d-1ea4-4dde-a807-96dd269dbd37" cx="161.4" cy="115.4" rx="2.9" ry="1.1" transform="translate(-23.3 197) rotate(-63)"/><ellipse id="bfac6908-16e2-417e-b5f5-e8e75ec43083" data-name="dot" class="a1eecb6d-1ea4-4dde-a807-96dd269dbd37" cx="128.8" cy="122.8" rx="1.1" ry="2.9" transform="translate(-21.2 221) rotate(-81)"/></g></svg>