<?xml version="1.0" encoding="utf-8"?>
<!-- Generator: Adobe Illustrator 23.0.1, SVG Export Plug-In . SVG Version: 6.00 Build 0)  -->
<svg version="1.1" id="Grape_6_" xmlns="http://www.w3.org/2000/svg" xmlns:xlink="http://www.w3.org/1999/xlink" x="0px" y="0px"
	 viewBox="0 0 288 299.62" style="enable-background:new 0 0 288 299.62;" xml:space="preserve">
<style type="text/css">
	.st0{fill:#22B573;stroke:#231F20;stroke-linecap:round;stroke-miterlimit:10;}
	.st1{fill:#231F20;}
</style>
<circle id="smaill_grape_5_" class="st0" cx="186.38" cy="185.45" r="39.47"/>
<circle id="smaill_grape_4_" class="st0" cx="67.98" cy="116.16" r="39.47"/>
<circle id="smaill_grape_3_" class="st0" cx="146.92" cy="116.16" r="39.47"/>
<circle id="smaill_grape_2_" class="st0" cx="107.45" cy="185.45" r="39.47"/>
<circle id="smaill_grape_1_" class="st0" cx="225.85" cy="116.16" r="39.47"/>
<circle id="smaill_grape" class="st0" cx="146.92" cy="253.8" r="39.47"/>
<g id="branch">
	<g>
		<path class="st1" d="M210.57,2.19c-17.73-1.89-37.64,4.02-49.24,18.13c-13.26,16.12-10.27,37.11-15.86,55.98
			c-0.55,1.85,2.34,2.65,2.89,0.8c5.14-17.36,2.52-36.96,13.39-52.41c10.7-15.21,30.93-21.41,48.82-19.5
			C212.49,5.39,212.47,2.39,210.57,2.19L210.57,2.19z"/>
	</g>
</g>
</svg>
