<svg id="afc95a6c-8631-4ee4-92e2-dc6fa1f4a4e0" data-name="kiwi" xmlns="http://www.w3.org/2000/svg" viewBox="0 0 280.4 280.4"><defs><style>.a0bca2db-6e25-4722-841a-443c1bfb0e4b{fill:#60453c;stroke:#000;stroke-miterlimit:10;}.e8bf902f-e563-4a72-9407-7b3a0951713c{fill:#8ab606;}.f90478f0-e03f-487b-9635-4c103c5c16ec{fill:#e5faa6;}</style></defs><title>kiwi1</title><circle id="e22b7969-f0a4-4102-9ee4-f85b9ef3411b" data-name="cover layer" class="a0bca2db-6e25-4722-841a-443c1bfb0e4b" cx="140.2" cy="140.2" r="139.7"/><ellipse id="accce4e3-2c6f-416a-bed7-d4e0996552a4" data-name="3 layer" class="e8bf902f-e563-4a72-9407-7b3a0951713c" cx="141.1" cy="139.1" rx="132.7" ry="132.6"/><polygon id="fab1eaa6-1fe2-433a-9fe1-5d8f11d34383" data-name="inside kiwi" class="f90478f0-e03f-487b-9635-4c103c5c16ec" points="199.2 200.4 167.1 169.8 185.7 210 159.9 173.9 170.6 217 152.1 176.6 154.5 220.9 143.8 177.8 137.9 221.7 135.5 177.4 121.4 219.3 127.4 175.4 105.6 213.8 119.8 172 91.2 205.4 113 167.1 78.5 194.5 107.2 161.1 68.1 181.4 102.7 154.1 60.4 166.5 99.6 146.3 55.6 150.5 97.9 138.1 53.9 133.9 97.9 129.8 55.4 117.3 99.4 121.6 60 101.3 102.4 113.8 67.5 86.5 106.9 106.8 77.7 73.4 112.6 100.8 90.2 62.4 119.3 96 104.6 54.1 126.9 92.5 120.3 48.7 135 90.5 136.7 46.3 143.3 90.2 153.4 47.1 151.5 91.3 169.6 51.1 159.4 94.1 184.7 58 166.6 98.3 198.4 67.7 173 103.7 209.9 79.8 178.1 110.3 219 93.8 182 117.7 225.3 109.3 184.4 125.7 228.6 125.7 185.2 134 228.7 142.4 184.5 142.3 225.6 158.8 182.2 150.3 219.5 174.3 178.5 157.7 210.6 188.3 173.3 164.3 199.2 200.4"/><g id="bcb19b7e-933d-43ef-9264-68405b8856db" data-name="Seed"><ellipse id="b27761e5-5398-4777-9344-d22345dc26b5" data-name="seed" cx="144.7" cy="205.6" rx="1" ry="7.2"/><ellipse id="f4ce1964-62cc-4efc-8b29-3c0413005f1c" data-name="seed" cx="143.5" cy="63" rx="1" ry="7.2"/><ellipse id="e1991c73-b80b-402c-9d61-00c87cce749a" data-name="seed" cx="133.9" cy="71.7" rx="1" ry="7.2" transform="translate(-8.4 4.7) rotate(-5)"/><ellipse id="ac60716e-d8e2-41da-af96-0942865a26a2" data-name="seed" cx="121.1" cy="74.2" rx="1" ry="7.2" transform="translate(-21.7 43.6) rotate(-22)"/><ellipse id="a6b316c5-02bb-469d-9ebf-1ca52ba3e148" data-name="seed" cx="98.5" cy="87.8" rx="1" ry="7.2" transform="translate(-36 74.3) rotate(-39)"/><ellipse id="b06c20d4-c45b-40fc-94be-609cf0f52176" data-name="seed" cx="109.5" cy="80.1" rx="1" ry="7.2" transform="translate(-26.3 46.6) rotate(-25)"/><ellipse id="f9805f99-33b7-4fbd-b105-deb67fe1008b" data-name="seed" cx="89.3" cy="98.8" rx="1" ry="7.2" transform="translate(-46.5 96.5) rotate(-50)"/><ellipse id="e8cfcb78-efc5-43ec-94c8-b06bddf2d4e4" data-name="seed" cx="82.8" cy="108.6" rx="1" ry="7.2" transform="translate(-52.8 132.8) rotate(-66)"/><ellipse id="bfe7b124-15fd-4800-bd56-4a7587d63223" data-name="seed" cx="79" cy="122.5" rx="1" ry="7.2" transform="translate(-58 171.8) rotate(-80)"/><ellipse id="b39923bd-c57d-4c0e-b309-aba18a2d0fca" data-name="seed" cx="72.9" cy="128.2" rx="7.2" ry="1"/><ellipse id="b0912278-d495-4d66-9072-2b785bfea964" data-name="seed" cx="75.6" cy="148.2" rx="7.2" ry="1" transform="translate(-27.3 8.2) rotate(-10)"/><ellipse id="ba14fd58-70df-4185-b551-022cc0f0e1cd" data-name="seed" cx="85.2" cy="172.5" rx="7.2" ry="1" transform="translate(-77.5 58.5) rotate(-30)"/><ellipse id="faff02b3-7638-4f95-af25-0a19582757bd" data-name="seed" cx="78" cy="161.6" rx="7.2" ry="1" transform="translate(-53.3 29.2) rotate(-20)"/><ellipse id="b4d764f4-c00b-4a33-89ae-701a33b81904" data-name="seed" cx="90.7" cy="184.1" rx="7.2" ry="1" transform="translate(-99.8 94.2) rotate(-40)"/><ellipse id="e971f78b-4b18-4b51-a89f-08a069899dc4" data-name="seed" cx="99.3" cy="194.4" rx="7.2" ry="1" transform="translate(-116.2 138.3) rotate(-50)"/><ellipse id="acf04b6e-7a4c-41f4-a6b3-d05a1120f464" data-name="seed" cx="109.2" cy="202.7" rx="7.2" ry="1" transform="translate(-123.6 188.7) rotate(-60)"/><ellipse id="b28ad8c6-805d-4eff-9ec4-66e089e66cea" data-name="seed" cx="120.9" cy="209.3" rx="7.2" ry="1" transform="translate(-119.8 244.2) rotate(-70)"/><ellipse id="ab831950-332e-40d9-a030-4589b2680019" data-name="seed" cx="133.4" cy="212.8" rx="7.2" ry="1" transform="translate(-102 300) rotate(-80)"/><ellipse id="a9750f7c-0881-4553-a760-1156b94cd352" data-name="seed" cx="161.2" cy="211.7" rx="1" ry="7.2" transform="translate(-37 24) rotate(-10)"/><ellipse id="b5152689-aa3d-4d27-86e5-bcc6f96a007d" data-name="seed" cx="173.8" cy="208.1" rx="1" ry="7.2" transform="translate(-63.4 64.8) rotate(-20)"/><ellipse id="f86fffd5-7e75-42a0-b30e-12820167df27" data-name="seed" cx="186.5" cy="200.6" rx="1" ry="7.2" transform="translate(-78 112.9) rotate(-30)"/><ellipse id="f655d8ed-d550-454d-bd79-dfcb2f32c270" data-name="seed" cx="197.7" cy="192.5" rx="1" ry="7.2" transform="translate(-80.2 164.9) rotate(-40)"/><ellipse id="bee0f59b-5224-4f3c-8c2a-8a6bce8ca87e" data-name="seed" cx="206.5" cy="182.3" rx="1" ry="7.2" transform="translate(-68.6 216.1) rotate(-50)"/><ellipse id="ff58c7e2-d4d4-4532-98fa-9fe1b1f79f61" data-name="seed" cx="212.8" cy="169" rx="1" ry="7.2" transform="translate(-42.6 261.6) rotate(-60)"/><ellipse id="a6e248fc-eebf-4f42-9d2e-ef92af7bfa31" data-name="seed" cx="216" cy="155.1" rx="1" ry="7.2" transform="translate(-6.3 297.8) rotate(-70)"/><ellipse id="a4fbf939-210f-4f8d-b40b-0898c0ef1b7c" data-name="seed" cx="214.9" cy="134" rx="7.2" ry="1"/><ellipse id="ac20e946-3a12-4377-980c-ef505c775c87" data-name="seed" cx="216" cy="127.4" rx="7.2" ry="1" transform="translate(-21.5 32.2) rotate(-10)"/><ellipse id="a2215a9a-852d-473d-a375-28132bacc539" data-name="seed" cx="210.4" cy="114.9" rx="7.2" ry="1" transform="translate(-29.3 71.7) rotate(-20)"/><ellipse id="b79f3af2-be8b-4f63-930d-e9ff83da6ca3" data-name="seed" cx="204.7" cy="102.4" rx="7.2" ry="1" transform="translate(-26.5 108.9) rotate(-30)"/><ellipse id="f4e8b129-0ef3-4221-897a-ee07897fd617" data-name="seed" cx="196.2" cy="91.2" rx="7.2" ry="1" transform="translate(-15.4 140.3) rotate(-40)"/><ellipse id="acf56043-e8db-45c8-87e1-abf6103e7e8f" data-name="seed" cx="187.2" cy="80.4" rx="7.2" ry="1" transform="translate(2.6 164.9) rotate(-50)"/><ellipse id="f84ee083-92ec-47a4-ba1c-427479a3645a" data-name="seed" cx="173.8" cy="73.9" rx="7.2" ry="1" transform="translate(20.2 180.2) rotate(-60)"/><ellipse id="b60f27fc-9e00-4639-b9f0-43306cb3f42a" data-name="seed" cx="160.8" cy="70.2" rx="7.2" ry="1" transform="translate(61 209.2) rotate(-80)"/></g><circle id="b172a456-e262-4b42-9243-7b2fb7582e16" data-name="moon cirvle" class="f90478f0-e03f-487b-9635-4c103c5c16ec" cx="141.3" cy="133" r="43.1"/></svg>