<svg id="a1af83da-4f15-4473-864e-a401793ffb1f" data-name="Mangosteen" xmlns="http://www.w3.org/2000/svg" viewBox="0 0 287.8 287.8"><defs><style>.a2823e85-e882-485c-a212-13cff1b8c489,.b72d09a3-fcd2-4a05-839b-9ec27c3c690d{fill:#c35351;}.b72d09a3-fcd2-4a05-839b-9ec27c3c690d{stroke:#000;stroke-miterlimit:10;}.a9e33bfe-2276-4f03-83a6-0428f80951b1{fill:#f7eeea;}</style></defs><title>mangosteen</title><circle id="fb0fb187-f03d-4f6f-956c-d3ecc1f27126" data-name="Circle" class="b72d09a3-fcd2-4a05-839b-9ec27c3c690d" cx="143.9" cy="143.9" r="143.4"/><circle id="e01110e5-5c90-4e6a-8def-ec48f1c563d8" data-name="Inside circle" class="a2823e85-e882-485c-a212-13cff1b8c489" cx="143.6" cy="144.4" r="129.6"/><path id="b121912e-5854-4249-99e8-de87491d68cd" data-name="small piece" class="a9e33bfe-2276-4f03-83a6-0428f80951b1" d="M145.7,143.3V29s50.2-7.3,80.2,31.9Z" transform="translate(0.3 -2.4)"/><path id="af829475-f7cb-448a-a150-c83269c47254" data-name="small piece" class="a9e33bfe-2276-4f03-83a6-0428f80951b1" d="M149,144l80.8-80.8s40.7,30.4,34.1,79.3Z" transform="translate(0.3 -2.4)"/><path id="aa32bb50-42b9-4971-89eb-46304b6f6f23" data-name="small piece" class="a9e33bfe-2276-4f03-83a6-0428f80951b1" d="M140.6,143.7V29.4S90.4,22.1,60.4,61.3Z" transform="translate(0.3 -2.4)"/><path id="b1b245cc-eb98-4d31-9443-599061c8e88e" data-name="small piece" class="a9e33bfe-2276-4f03-83a6-0428f80951b1" d="M137.3,144.3,56.6,63.6S15.9,93.9,22.4,142.8Z" transform="translate(0.3 -2.4)"/><path id="f17ea529-016b-41b7-aafb-e0cc56bf94c3" data-name="small piece" class="a9e33bfe-2276-4f03-83a6-0428f80951b1" d="M144.7,148.3V262.5s50.2,7.3,80.2-31.9Z" transform="translate(0.3 -2.4)"/><path id="be688a3a-00dd-457d-b7d4-082bc9f5883b" data-name="small piece" class="a9e33bfe-2276-4f03-83a6-0428f80951b1" d="M148,147.6l80.8,80.8s40.7-30.4,34.1-79.3Z" transform="translate(0.3 -2.4)"/><path id="a8b8b4b7-65f9-4c02-add9-5a0bca596df3" data-name="small piece" class="a9e33bfe-2276-4f03-83a6-0428f80951b1" d="M139.6,147.9V262.1s-50.2,7.3-80.2-31.9Z" transform="translate(0.3 -2.4)"/><path id="f190619e-dc8a-49ab-935d-014334d2ae8f" data-name="small piece" class="a9e33bfe-2276-4f03-83a6-0428f80951b1" d="M136.3,147.2,55.6,228s-40.7-30.4-34.2-79.3Z" transform="translate(0.3 -2.4)"/></svg>