<svg id="a392b2bc-4420-4e15-b84b-f1bfaa766716" data-name="Orange" xmlns="http://www.w3.org/2000/svg" viewBox="0 0 277.3 277.3"><defs><style>.a3fe5c6c-a8c7-47ea-b5b4-2eb3baff4a28,.b089528a-ce42-47a4-854e-066b68ba4061{fill:#f7931e;}.b089528a-ce42-47a4-854e-066b68ba4061{stroke:#000;stroke-miterlimit:10;}.ad5384aa-564d-4fdb-bd54-225c03d14878{fill:#fff;}</style></defs><title>orange</title><circle id="f553c197-b921-44e5-8c67-b4604e143060" data-name="Circle" class="b089528a-ce42-47a4-854e-066b68ba4061" cx="138.7" cy="138.7" r="138.2"/><circle id="bb170174-41c7-44df-8a56-a84c954577c3" data-name="Inside circle" class="ad5384aa-564d-4fdb-bd54-225c03d14878" cx="138.6" cy="138" r="129.6"/><path id="e5cd207f-0ef2-413a-b25b-96d08ea2fb7d" data-name="orange piece" class="a3fe5c6c-a8c7-47ea-b5b4-2eb3baff4a28" d="M141,134.5V20.2s50.2-7.3,80.2,31.9Z"/><path id="aee8c1d0-efc0-4199-b125-08c76c063e3f" data-name="orange piece-2" class="a3fe5c6c-a8c7-47ea-b5b4-2eb3baff4a28" d="M144.3,135.1,225,54.4s40.7,30.3,34.2,79.2Z"/><path id="bc8dc70e-517d-4e22-a4c8-9b9ad1e56d77" data-name="orange piece-3" class="a3fe5c6c-a8c7-47ea-b5b4-2eb3baff4a28" d="M135.9,134.8V20.6S85.7,13.3,55.7,52.5Z"/><path id="baff940a-47d4-4dec-bd62-dadde2947b17" data-name="orange piece-4" class="a3fe5c6c-a8c7-47ea-b5b4-2eb3baff4a28" d="M132.6,135.5,51.8,54.7S11.1,85.1,17.7,134Z"/><path id="a8ecd4ac-41ad-43ae-b703-3422517848f8" data-name="orange piece-5" class="a3fe5c6c-a8c7-47ea-b5b4-2eb3baff4a28" d="M140,139.5V253.7s50.2,7.3,80.2-31.9Z"/><path id="aaf27481-07fa-400f-9507-f9ca2d02f9f4" data-name="orange piece-6" class="a3fe5c6c-a8c7-47ea-b5b4-2eb3baff4a28" d="M143.3,138.8,224,219.5s40.7-30.3,34.2-79.2Z"/><path id="a8fd17d5-9ed0-4732-9af0-f75a3f40100c" data-name="orange piece-7" class="a3fe5c6c-a8c7-47ea-b5b4-2eb3baff4a28" d="M134.9,139.1V253.3s-50.2,7.3-80.2-31.9Z"/><path id="b32843f7-7832-4530-9d64-e11c81ae788e" data-name="orange piece-8" class="a3fe5c6c-a8c7-47ea-b5b4-2eb3baff4a28" d="M131.6,138.4,50.8,219.2s-40.7-30.4-34.1-79.3Z"/></svg>