<?xml version="1.0" encoding="utf-8"?>
<!-- Generator: Adobe Illustrator 23.0.1, SVG Export Plug-In . SVG Version: 6.00 Build 0)  -->
<svg version="1.1" id="Orange" xmlns="http://www.w3.org/2000/svg" xmlns:xlink="http://www.w3.org/1999/xlink" x="0px" y="0px"
	 viewBox="0 0 288 294.08" style="enable-background:new 0 0 288 294.08;" xml:space="preserve">
<style type="text/css">
	.st0{fill:#F7931E;stroke:#000000;stroke-miterlimit:10;}
	.st1{fill:#FFFFFF;}
	.st2{fill:#F7931E;}
</style>
<circle id="Circle" class="st0" cx="143.39" cy="147.49" r="138.17"/>
<circle id="Inside_circle" class="st1" cx="143.33" cy="146.8" r="129.56"/>
<path id="orange_piece_7_" class="st2" d="M145.69,143.27V29.03c0,0,50.26-7.3,80.2,31.91L145.69,143.27z"/>
<path id="orange_piece_6_" class="st2" d="M148.98,143.96l80.78-80.78c0,0,40.7,30.38,34.15,79.27L148.98,143.96z"/>
<path id="orange_piece_5_" class="st2" d="M140.63,143.66V29.41c0,0-50.26-7.3-80.2,31.91L140.63,143.66z"/>
<path id="orange_piece_4_" class="st2" d="M137.34,144.34L56.56,63.56c0,0-40.7,30.38-34.15,79.27L137.34,144.34z"/>
<path id="orange_piece_3_" class="st2" d="M144.69,148.28v114.24c0,0,50.26,7.3,80.2-31.91L144.69,148.28z"/>
<path id="orange_piece_2_" class="st2" d="M147.98,147.59l80.78,80.78c0,0,40.7-30.38,34.15-79.27L147.98,147.59z"/>
<path id="orange_piece_1_" class="st2" d="M139.63,147.9v114.24c0,0-50.26,7.3-80.2-31.91L139.63,147.9z"/>
<path id="orange_piece" class="st2" d="M136.34,147.21l-80.78,80.78c0,0-40.7-30.38-34.15-79.27L136.34,147.21z"/>
</svg>
