<?xml version="1.0" encoding="utf-8"?>
<!-- Generator: Adobe Illustrator 23.0.1, SVG Export Plug-In . SVG Version: 6.00 Build 0)  -->
<svg version="1.1" id="Papaya" xmlns="http://www.w3.org/2000/svg" xmlns:xlink="http://www.w3.org/1999/xlink" x="0px" y="0px"
	 viewBox="0 0 288 296.42" style="enable-background:new 0 0 288 296.42;" xml:space="preserve">
<style type="text/css">
	.st0{fill:none;}
	.st1{fill:#231F20;}
	.st2{fill:#006837;stroke:#000000;stroke-miterlimit:10;}
	.st3{fill:#FBA421;}
	.st4{fill:#F1830E;}
	.st5{fill:url(#_x31_0_dpi_80_x25_);}
</style>
<pattern  width="28.8" height="28.8" patternUnits="userSpaceOnUse" id="_x31_0_dpi_80_x25_" viewBox="5.76 -34.56 28.8 28.8" style="overflow:visible;">
	<g>
		<rect x="5.76" y="-34.56" class="st0" width="28.8" height="28.8"/>
		<g>
			<path class="st1" d="M12.96-7.2c3.18,0,5.76-2.58,5.76-5.76c0-3.18-2.58-5.76-5.76-5.76c-3.18,0-5.76,2.58-5.76,5.76
				C7.2-9.78,9.78-7.2,12.96-7.2z"/>
			<path class="st1" d="M27.36-7.2c3.18,0,5.76-2.58,5.76-5.76c0-3.18-2.58-5.76-5.76-5.76c-3.18,0-5.76,2.58-5.76,5.76
				C21.6-9.78,24.18-7.2,27.36-7.2z"/>
			<path class="st1" d="M12.96-21.6c3.18,0,5.76-2.58,5.76-5.76c0-3.18-2.58-5.76-5.76-5.76c-3.18,0-5.76,2.58-5.76,5.76
				C7.2-24.18,9.78-21.6,12.96-21.6z"/>
			<path class="st1" d="M27.36-21.6c3.18,0,5.76-2.58,5.76-5.76c0-3.18-2.58-5.76-5.76-5.76c-3.18,0-5.76,2.58-5.76,5.76
				C21.6-24.18,24.18-21.6,27.36-21.6z"/>
			<path class="st1" d="M34.56,0c3.18,0,5.76-2.58,5.76-5.76c0-3.18-2.58-5.76-5.76-5.76c-3.18,0-5.76,2.58-5.76,5.76
				C28.8-2.58,31.38,0,34.56,0z"/>
			<path class="st1" d="M20.16,0c3.18,0,5.76-2.58,5.76-5.76c0-3.18-2.58-5.76-5.76-5.76c-3.18,0-5.76,2.58-5.76,5.76
				C14.4-2.58,16.98,0,20.16,0z"/>
			<path class="st1" d="M34.56-14.4c3.18,0,5.76-2.58,5.76-5.76s-2.58-5.76-5.76-5.76c-3.18,0-5.76,2.58-5.76,5.76
				S31.38-14.4,34.56-14.4z"/>
			<path class="st1" d="M20.16-14.4c3.18,0,5.76-2.58,5.76-5.76s-2.58-5.76-5.76-5.76c-3.18,0-5.76,2.58-5.76,5.76
				S16.98-14.4,20.16-14.4z"/>
		</g>
		<g>
			<path class="st1" d="M5.76,0c3.18,0,5.76-2.58,5.76-5.76c0-3.18-2.58-5.76-5.76-5.76S0-8.94,0-5.76C0-2.58,2.58,0,5.76,0z"/>
			<path class="st1" d="M5.76-14.4c3.18,0,5.76-2.58,5.76-5.76s-2.58-5.76-5.76-5.76S0-23.34,0-20.16S2.58-14.4,5.76-14.4z"/>
		</g>
		<g>
			<path class="st1" d="M34.56-28.8c3.18,0,5.76-2.58,5.76-5.76s-2.58-5.76-5.76-5.76c-3.18,0-5.76,2.58-5.76,5.76
				S31.38-28.8,34.56-28.8z"/>
			<path class="st1" d="M20.16-28.8c3.18,0,5.76-2.58,5.76-5.76s-2.58-5.76-5.76-5.76c-3.18,0-5.76,2.58-5.76,5.76
				S16.98-28.8,20.16-28.8z"/>
		</g>
		<g>
			<path class="st1" d="M5.76-28.8c3.18,0,5.76-2.58,5.76-5.76s-2.58-5.76-5.76-5.76S0-37.74,0-34.56S2.58-28.8,5.76-28.8z"/>
		</g>
	</g>
</pattern>
<circle id="cover_layer" class="st2" cx="142.85" cy="147.39" r="139.66"/>
<circle id="_x32__layer" class="st3" cx="142.84" cy="146.39" r="132.82"/>
<circle id="_x33__layer" class="st4" cx="144" cy="146.68" r="119.86"/>
<polygon id="star_inside" class="st5" points="144,74.88 161.95,115.59 206.18,110.78 179.9,146.68 206.18,182.59 161.95,177.78 
	144,218.49 126.05,177.78 81.82,182.59 108.1,146.68 81.82,110.78 126.05,115.59 "/>
</svg>
