<svg id="b398768d-7a82-42f0-927a-e4e064ef8d06" data-name="papaya" xmlns="http://www.w3.org/2000/svg" xmlns:xlink="http://www.w3.org/1999/xlink" viewBox="0 0 275.5 275.5"><defs><style>.a46a8151-436e-4cc8-8473-a686a97c0967{fill:none;}.a6534fb0-6ce1-49b5-bf0a-92e1c676c30e{fill:#231f20;}.a8acfecc-9c08-4e11-a5ed-31578eb1c62c{fill:#006837;stroke:#000;stroke-miterlimit:10;}.af62bc32-c487-4637-b66c-c7f831daf30d{fill:#fba421;}.a6df240b-593d-44ac-b6d4-8fd649ccff10{fill:#f90;}.e009706a-e088-4a1e-b8fe-7a2b8fc86a3e{fill:url(#b0cdcc40-2d35-438b-bcf2-4a3ee6fdbe7b);}</style><pattern id="b0cdcc40-2d35-438b-bcf2-4a3ee6fdbe7b" data-name="a923d43c-a875-4497-b584-9c3bacb" x="-5.1" y="-7" width="28.8" height="28.8" patternUnits="userSpaceOnUse" viewBox="0 0 28.8 28.8"><rect class="a46a8151-436e-4cc8-8473-a686a97c0967" width="28.8" height="28.8"/><rect class="a46a8151-436e-4cc8-8473-a686a97c0967" width="28.8" height="28.8"/><rect class="a46a8151-436e-4cc8-8473-a686a97c0967" width="28.8" height="28.8"/><path class="a6534fb0-6ce1-49b5-bf0a-92e1c676c30e" d="M7.2,27.4a5.8,5.8,0,1,0-5.8-5.8h0A5.8,5.8,0,0,0,7.2,27.4Z"/><path class="a6534fb0-6ce1-49b5-bf0a-92e1c676c30e" d="M21.6,27.4a5.8,5.8,0,1,0-5.8-5.8h0A5.8,5.8,0,0,0,21.6,27.4Z"/><path class="a6534fb0-6ce1-49b5-bf0a-92e1c676c30e" d="M7.2,13A5.8,5.8,0,1,0,1.4,7.2h0A5.8,5.8,0,0,0,7.2,13Z"/><path class="a6534fb0-6ce1-49b5-bf0a-92e1c676c30e" d="M21.6,13a5.8,5.8,0,1,0-5.8-5.8h0A5.8,5.8,0,0,0,21.6,13Z"/><path class="a6534fb0-6ce1-49b5-bf0a-92e1c676c30e" d="M28.8,34.6A5.8,5.8,0,1,0,23,28.8,5.8,5.8,0,0,0,28.8,34.6Z"/><path class="a6534fb0-6ce1-49b5-bf0a-92e1c676c30e" d="M14.4,34.6a5.8,5.8,0,0,0,5.8-5.8h0a5.8,5.8,0,1,0-5.8,5.8Z"/><path class="a6534fb0-6ce1-49b5-bf0a-92e1c676c30e" d="M28.8,20.2A5.8,5.8,0,1,0,23,14.4h0A5.8,5.8,0,0,0,28.8,20.2Z"/><path class="a6534fb0-6ce1-49b5-bf0a-92e1c676c30e" d="M14.4,20.2a5.8,5.8,0,1,0-5.8-5.8h0A5.8,5.8,0,0,0,14.4,20.2Z"/><path class="a6534fb0-6ce1-49b5-bf0a-92e1c676c30e" d="M0,34.6a5.8,5.8,0,0,0,5.8-5.8A5.8,5.8,0,0,0,0,23,5.8,5.8,0,0,0,0,34.6Z"/><path class="a6534fb0-6ce1-49b5-bf0a-92e1c676c30e" d="M0,20.2a5.8,5.8,0,0,0,5.8-5.8A5.8,5.8,0,0,0,0,8.6,5.8,5.8,0,0,0,0,20.2Z"/><path class="a6534fb0-6ce1-49b5-bf0a-92e1c676c30e" d="M28.8,5.8A5.8,5.8,0,0,0,34.6,0,5.8,5.8,0,0,0,23,0h0A5.8,5.8,0,0,0,28.8,5.8Z"/><path class="a6534fb0-6ce1-49b5-bf0a-92e1c676c30e" d="M14.4,5.8A5.8,5.8,0,0,0,20.2,0,5.8,5.8,0,1,0,8.6,0h0A5.8,5.8,0,0,0,14.4,5.8Z"/><path class="a6534fb0-6ce1-49b5-bf0a-92e1c676c30e" d="M0,5.8A5.8,5.8,0,0,0,5.8,0,5.8,5.8,0,0,0,0-5.8,5.8,5.8,0,0,0-5.8,0,5.8,5.8,0,0,0,0,5.8Z"/></pattern></defs><title>papaya1</title><circle id="be030378-2482-425e-a821-36e6224bd013" data-name="green out side" class="a8acfecc-9c08-4e11-a5ed-31578eb1c62c" cx="137.8" cy="137.8" r="137.3"/><circle id="af59356d-4064-4a85-a2f8-1b76b950742e" data-name="red outside" class="af62bc32-c487-4637-b66c-c7f831daf30d" cx="138.4" cy="137.8" r="130.9"/><circle id="ae587ca4-3948-4bc1-9b1e-0dea8b9f845b" data-name="white 2" class="a6df240b-593d-44ac-b6d4-8fd649ccff10" cx="137.8" cy="138.9" r="109.7"/><ellipse id="b8805529-3222-4f0b-a0b1-a454996da979" data-name="red inside" class="a6df240b-593d-44ac-b6d4-8fd649ccff10" cx="137.8" cy="137.9" rx="87.1" ry="89"/><ellipse id="bdb1ef20-33a0-4647-8d8b-46f6dc84d30d" data-name="blue" class="a6df240b-593d-44ac-b6d4-8fd649ccff10" cx="138.9" cy="138.9" rx="66.8" ry="68.3"/><polygon id="ea95737b-2a6a-40d4-bfc1-5d18fad3ef8d" data-name="star" class="e009706a-e088-4a1e-b8fe-7a2b8fc86a3e" points="138.5 73.1 157.7 112.1 200.6 118.4 169.5 148.7 176.9 191.6 138.5 171.4 100.2 191.6 107.5 148.7 76.5 118.4 119.4 112.1 138.5 73.1"/></svg>