<?xml version="1.0" encoding="utf-8"?>
<!-- Generator: Adobe Illustrator 23.0.1, SVG Export Plug-In . SVG Version: 6.00 Build 0)  -->
<svg version="1.1" id="passion" xmlns="http://www.w3.org/2000/svg" xmlns:xlink="http://www.w3.org/1999/xlink" x="0px" y="0px"
	 viewBox="0 0 288 296.4" style="enable-background:new 0 0 288 296.4;" xml:space="preserve">
<style type="text/css">
	.st0{fill:#4A224A;stroke:#000000;stroke-miterlimit:10;}
	.st1{fill:#FF8272;}
	.st2{fill:#FBFFEC;}
	.st3{fill:#FAC004;}
	.st4{fill:#CE9C09;}
</style>
<circle id="cover_layer" class="st0" cx="142.9" cy="147.4" r="139.7"/>
<circle id="pink_layer" class="st1" cx="142.8" cy="146.4" r="132.8"/>
<circle id="white_layer" class="st2" cx="142.5" cy="146.2" r="127.4"/>
<circle id="yellow_layer" class="st3" cx="142.2" cy="146.1" r="108.8"/>
<g id="Seed">
	<ellipse id="seed" class="st4" cx="142.5" cy="65.3" rx="3.5" ry="7.9"/>
	<ellipse id="seed_1_" class="st4" cx="152.5" cy="135.3" rx="3.5" ry="7.9"/>
	<ellipse id="seed_2_" class="st4" cx="208.3" cy="90.4" rx="3.5" ry="7.9"/>
	<ellipse id="seed_3_" class="st4" cx="100.5" cy="95.6" rx="3.5" ry="7.9"/>
	<ellipse id="seed_4_" class="st4" cx="89.8" cy="217.8" rx="3.5" ry="7.9"/>
	<ellipse id="seed_5_" class="st4" cx="146" cy="239.2" rx="3.5" ry="7.9"/>
	<ellipse id="seed_6_" class="st4" cx="123.7" cy="163.6" rx="3.5" ry="7.9"/>
	<ellipse id="seed_7_" class="st4" cx="144.2" cy="171.5" rx="3.5" ry="7.9"/>
	<ellipse id="seed_8_" class="st4" cx="196.8" cy="151.2" rx="3.5" ry="7.9"/>
	<ellipse id="seed_9_" class="st4" cx="123.7" cy="204.6" rx="3.5" ry="7.9"/>
	<ellipse id="seed_10_" class="st4" cx="186.9" cy="225.7" rx="3.5" ry="7.9"/>
	<ellipse id="seed_11_" class="st4" cx="232.1" cy="187.4" rx="3.5" ry="7.9"/>
	<ellipse id="seed_12_" class="st4" cx="70.4" cy="187.4" rx="3.5" ry="7.9"/>
	<ellipse id="seed_13_" class="st4" cx="239.2" cy="116.9" rx="3.5" ry="7.9"/>
	<ellipse id="seed_14_" class="st4" cx="63.3" cy="135.3" rx="3.5" ry="7.9"/>
	<ellipse id="seed_15_" class="st4" cx="186.9" cy="65.3" rx="3.5" ry="7.9"/>
	<ellipse id="seed_16_" class="st4" cx="79.2" cy="84.3" rx="3.5" ry="7.9"/>
	<ellipse id="seed_17_" class="st4" cx="186.9" cy="122.6" rx="3.5" ry="7.9"/>
	<ellipse id="seed_18_" class="st4" cx="156" cy="95.6" rx="3.5" ry="7.9"/>
	<ellipse id="seed_19_" class="st4" cx="105.9" cy="146.2" rx="3.5" ry="7.9"/>
	<ellipse id="seed_20_" class="st4" cx="221.2" cy="143.2" rx="3.5" ry="7.9"/>
	<ellipse id="seed_21_" class="st4" cx="82.7" cy="154.1" rx="3.5" ry="7.9"/>
	<ellipse id="seed_22_" class="st4" cx="214.1" cy="116.9" rx="3.5" ry="7.9"/>
	<ellipse id="seed_23_" class="st4" cx="53.4" cy="165.3" rx="3.5" ry="7.9"/>
	<ellipse id="seed_24_" class="st4" cx="100.5" cy="183.4" rx="3.5" ry="7.9"/>
	<ellipse id="seed_25_" class="st4" cx="89.8" cy="122.6" rx="3.5" ry="7.9"/>
	<ellipse id="seed_26_" class="st4" cx="128.3" cy="87.7" rx="3.5" ry="7.9"/>
	<ellipse id="seed_27_" class="st4" cx="208.3" cy="187.4" rx="3.5" ry="7.9"/>
	<ellipse id="seed_28_" class="st4" cx="156" cy="209.9" rx="3.5" ry="7.9"/>
	<ellipse id="seed_29_" class="st4" cx="182.2" cy="95.6" rx="3.5" ry="7.9"/>
	<ellipse id="seed_30_" class="st4" cx="127.2" cy="122.6" rx="3.5" ry="7.9"/>
	<ellipse id="seed_31_" class="st4" cx="178.7" cy="187.4" rx="3.5" ry="7.9"/>
	<ellipse id="seed_32_" class="st4" cx="237.9" cy="157.4" rx="3.5" ry="7.9"/>
	<ellipse id="seed_33_" class="st4" cx="172.5" cy="157.4" rx="3.5" ry="7.9"/>
	<ellipse id="seed_34_" class="st4" cx="168.9" cy="57.4" rx="3.5" ry="7.9"/>
	<ellipse id="seed_35_" class="st4" cx="59.8" cy="106.3" rx="3.5" ry="7.9"/>
	<ellipse id="seed_36_" class="st4" cx="116.7" cy="61.6" rx="3.5" ry="7.9"/>
	<ellipse id="seed_37_" class="st4" cx="214.1" cy="212.5" rx="3.5" ry="7.9"/>
	<ellipse id="seed_38_" class="st4" cx="116.7" cy="233.7" rx="3.5" ry="7.9"/>
</g>
</svg>
