<svg id="a11de186-eeaf-4a42-b2a4-42a89c13da1b" data-name="StarFruit" xmlns="http://www.w3.org/2000/svg" viewBox="0 0 254.6 238"><defs><style>.a4e0796c-105f-4bef-86e1-23a78698c099{fill:#fcee21;stroke:#000;}.a4e0796c-105f-4bef-86e1-23a78698c099,.b4f5f863-0821-4867-a81e-4592444eecf7{stroke-miterlimit:10;}.eda39703-04fe-41fb-8b98-3ed8119a939a{fill:#f4f1e4;}.b4f5f863-0821-4867-a81e-4592444eecf7{fill:#a67c52;stroke:#8c6239;}</style></defs><title>starFruit</title><polygon id="e3ab2079-e39f-44fc-a33f-4228c01bc26c" data-name="Star cover" class="a4e0796c-105f-4bef-86e1-23a78698c099" points="206.2 236.1 128 196.4 50.2 237.1 64.6 151.8 1.1 91.9 88.2 78.9 126.7 1.1 166.2 78.4 253.5 90.3 190.8 151 206.2 236.1"/><path id="a08582e4-1624-4ed1-af15-5d25916083f9" data-name="seed cover" class="eda39703-04fe-41fb-8b98-3ed8119a939a" d="M132.4,26.3s-20.9,48,.7,91.8C133.1,118.1,150.7,75.2,132.4,26.3Z" transform="translate(-5.8 -10.5)"/><g id="f31db495-5c6b-4b02-8528-3f8cd03003e9" data-name="Seed inside"><path id="accf5d66-4b93-4609-8c4e-260a51c138fe" data-name="seed" class="b4f5f863-0821-4867-a81e-4592444eecf7" d="M133.5,118.7s-2.4-12.3-1-22.2S133.5,118.7,133.5,118.7Z" transform="translate(-5.8 -10.5)"/><path id="a0538bc1-4edd-42f6-b570-8694141d8a43" data-name="seed cover" class="eda39703-04fe-41fb-8b98-3ed8119a939a" d="M71.9,231.3s43.5-28.9,49-77.4C120.9,153.9,82.9,180.3,71.9,231.3Z" transform="translate(-5.8 -10.5)"/><path id="b79ecc20-4ba0-49df-a884-89c0f7d1f23f" data-name="seed" class="b4f5f863-0821-4867-a81e-4592444eecf7" d="M122,152.4s-4.7,11.6-11.2,19.2S122,152.4,122,152.4Z" transform="translate(-5.8 -10.5)"/><path id="ee6e5967-6ebf-4ebc-a7b2-83804e557009" data-name="seed cover" class="eda39703-04fe-41fb-8b98-3ed8119a939a" d="M246.4,106s-51.9-5.4-86.7,28.7C159.7,134.7,205.7,138.4,246.4,106Z" transform="translate(-5.8 -10.5)"/><path id="a9b5b838-9d42-4473-990d-ae28b8b15433" data-name="seed" class="b4f5f863-0821-4867-a81e-4592444eecf7" d="M158.7,134.4s11-6.1,20.8-7.8S158.7,134.4,158.7,134.4Z" transform="translate(-5.8 -10.5)"/><path id="f098863b-e681-4be5-8fd4-f69115bda917" data-name="seed cover" class="eda39703-04fe-41fb-8b98-3ed8119a939a" d="M27.6,112.3s41.6,31.8,88.9,20.8C116.5,133.1,79.1,105.9,27.6,112.3Z" transform="translate(-5.8 -10.5)"/><path id="fd27ac98-85f2-4b73-993e-eb3cb4c6bb02" data-name="seed" class="b4f5f863-0821-4867-a81e-4592444eecf7" d="M117.8,132.8s-12.5-.5-21.8-4.1S117.8,132.8,117.8,132.8Z" transform="translate(-5.8 -10.5)"/><path id="b6798ab0-0745-448b-887b-e42825189302" data-name="seed cover" class="eda39703-04fe-41fb-8b98-3ed8119a939a" d="M195.7,226.3s-8-51.8-49.7-77C146,149.3,154.1,195,195.7,226.3Z" transform="translate(-5.8 -10.5)"/><path id="f1fbb72c-c708-4fdb-b6ff-4cc811684873" data-name="seed" class="b4f5f863-0821-4867-a81e-4592444eecf7" d="M145.7,148.1s8.7,9.1,12.8,18.1S145.7,148.1,145.7,148.1Z" transform="translate(-5.8 -10.5)"/></g></svg>