<?xml version="1.0" encoding="utf-8"?>
<!-- Generator: Adobe Illustrator 23.0.1, SVG Export Plug-In . SVG Version: 6.00 Build 0)  -->
<svg version="1.1" id="watermelon" xmlns="http://www.w3.org/2000/svg" xmlns:xlink="http://www.w3.org/1999/xlink" x="0px" y="0px"
	 viewBox="0 0 288 296.4" style="enable-background:new 0 0 288 296.4;" xml:space="preserve">
<style type="text/css">
	.st0{fill:#009245;stroke:#000000;stroke-miterlimit:10;}
	.st1{fill:#DD0A37;}
	.st2{stroke:#000000;stroke-miterlimit:10;}
</style>
<circle id="cover_layer" class="st0" cx="142.9" cy="147.4" r="139.7"/>
<circle id="red_layer" class="st1" cx="144" cy="146.7" r="119.9"/>
<g id="seed">
	
		<ellipse id="dot_6_" transform="matrix(0.7625 -0.647 0.647 0.7625 -115.3334 80.0065)" class="st2" cx="51.3" cy="197.1" rx="2.9" ry="1"/>
	
		<ellipse id="dot_44_" transform="matrix(0.6348 -0.7727 0.7727 0.6348 -54.9841 76.2681)" class="st2" cx="53.2" cy="96.3" rx="1" ry="2.8"/>
	
		<ellipse id="dot_43_" transform="matrix(0.6348 -0.7727 0.7727 0.6348 -32.4955 81.3333)" class="st2" cx="69.8" cy="75" rx="1" ry="2.8"/>
	
		<ellipse id="dot_42_" transform="matrix(0.794 -0.6079 0.6079 0.794 5.5116 138.9146)" class="st2" cx="207.7" cy="61.3" rx="2.8" ry="1"/>
	
		<ellipse id="dot_41_" transform="matrix(0.4881 -0.8728 0.8728 0.4881 51.7633 184.4349)" class="st2" cx="183.1" cy="48.1" rx="2.8" ry="1"/>
	
		<ellipse id="dot_38_" transform="matrix(0.8922 -0.4515 0.4515 0.8922 -12.924 110.4636)" class="st2" cx="225" cy="82.3" rx="2.9" ry="1"/>
	
		<ellipse id="dot_33_" transform="matrix(0.4054 -0.9141 0.9141 0.4054 57.1675 165.5033)" class="st2" cx="155.8" cy="38.8" rx="2.7" ry="1"/>
	
		<ellipse id="dot_32_" transform="matrix(0.1432 -0.9897 0.9897 0.1432 -88.3653 149.0023)" class="st2" cx="41.9" cy="125.5" rx="1" ry="2.9"/>
	
		<ellipse id="dot_28_" transform="matrix(0.9264 -0.3766 0.3766 0.9264 -21.6127 98.2664)" class="st2" cx="240.5" cy="104.4" rx="2.9" ry="1"/>
	
		<ellipse id="dot_27_" transform="matrix(0.8349 -0.5504 0.5504 0.8349 -15.3802 59.0032)" class="st2" cx="90.7" cy="55.1" rx="1" ry="2.8"/>
	
		<ellipse id="dot_26_" transform="matrix(0.9919 -0.1274 0.1274 0.9919 -14.4745 32.6703)" class="st2" cx="248.2" cy="129.5" rx="2.9" ry="1"/>
	
		<ellipse id="dot_25_" transform="matrix(0.9883 -0.1526 0.1526 0.9883 -5.0719 19.0533)" class="st2" cx="121.6" cy="42.6" rx="1.1" ry="2.7"/>
	
		<ellipse id="dot_24_" transform="matrix(0.6348 -0.7727 0.7727 0.6348 -64.1911 99.2736)" class="st2" cx="72.9" cy="117.5" rx="1" ry="2.8"/>
	
		<ellipse id="dot_22_" transform="matrix(0.8349 -0.5504 0.5504 0.8349 -33.2482 67.1292)" class="st2" cx="95.3" cy="89" rx="1" ry="2.8"/>
	
		<ellipse id="dot_19_" transform="matrix(0.9883 -0.1526 0.1526 0.9883 -9.2402 20.0148)" class="st2" cx="125.8" cy="70.2" rx="1.1" ry="2.7"/>
	
		<ellipse id="dot_17_" transform="matrix(0.9264 -0.3766 0.3766 0.9264 -31.0994 91.9862)" class="st2" cx="219.7" cy="125.5" rx="2.9" ry="1"/>
	
		<ellipse id="dot_14_" transform="matrix(0.794 -0.6079 0.6079 0.794 -17.745 148.8279)" class="st2" cx="210.7" cy="100.6" rx="2.8" ry="1"/>
	
		<ellipse id="dot_11_" transform="matrix(0.4881 -0.8728 0.8728 0.4881 24.1403 201.3246)" class="st2" cx="183.7" cy="80.1" rx="2.8" ry="1"/>
	
		<ellipse id="dot_9_" transform="matrix(0.3536 -0.9354 0.9354 0.3536 37.3426 189.5335)" class="st2" cx="155.8" cy="67.7" rx="2.7" ry="1"/>
	
		<ellipse id="dot_8_" transform="matrix(0.9264 -0.3766 0.3766 0.9264 -33.9132 81.6878)" class="st2" cx="192" cy="127.6" rx="2.9" ry="1"/>
	
		<ellipse id="dot_5_" transform="matrix(0.9883 -0.1526 0.1526 0.9883 -14.158 21.7775)" class="st2" cx="134.8" cy="103.1" rx="1.1" ry="2.7"/>
	
		<ellipse id="dot_4_" transform="matrix(0.4881 -0.8728 0.8728 0.4881 -6.8404 203.313)" class="st2" cx="169.9" cy="107.5" rx="2.8" ry="1"/>
	
		<ellipse id="dot_3_" transform="matrix(0.6348 -0.7727 0.7727 0.6348 -57.8006 128.7602)" class="st2" cx="107.3" cy="125.5" rx="1" ry="2.8"/>
	
		<ellipse id="dot_2_" transform="matrix(0.8349 -0.5504 0.5504 0.8349 -53.9124 93.8591)" class="st2" cx="129.5" cy="136.8" rx="1" ry="2.8"/>
	
		<ellipse id="dot_1_" transform="matrix(0.794 -0.6079 0.6079 0.794 -50.6034 128.0564)" class="st2" cx="163.6" cy="138.7" rx="2.8" ry="1"/>
	
		<ellipse id="dot_7_" transform="matrix(0.7625 -0.647 0.647 0.7625 -125.5891 96.0783)" class="st2" cx="68.1" cy="219.1" rx="2.9" ry="1"/>
	
		<ellipse id="dot_10_" transform="matrix(0.6204 -0.7843 0.7843 0.6204 -104.2666 251.1563)" class="st2" cx="207.3" cy="233.3" rx="1" ry="2.9"/>
	
		<ellipse id="dot_12_" transform="matrix(0.8796 -0.4758 0.4758 0.8796 -95.5329 116.5514)" class="st2" cx="182.5" cy="247" rx="1.1" ry="2.8"/>
	
		<ellipse id="dot_13_" transform="matrix(0.4632 -0.8863 0.8863 0.4632 -66.8463 312.759)" class="st2" cx="224.7" cy="211.6" rx="1" ry="2.9"/>
	
		<ellipse id="dot_15_" transform="matrix(0.919 -0.3942 0.3942 0.919 -88.6055 81.8386)" class="st2" cx="154.9" cy="256.6" rx="1.1" ry="2.8"/>
	
		<ellipse id="dot_16_" transform="matrix(0.989 -0.1477 0.1477 0.989 -24.1993 7.7182)" class="st2" cx="39.9" cy="166.8" rx="2.9" ry="1"/>
	
		<ellipse id="dot_18_" transform="matrix(0.387 -0.9221 0.9221 0.387 -26.5987 337.3504)" class="st2" cx="240.4" cy="188.7" rx="1" ry="2.9"/>
	
		<ellipse id="dot_20_" transform="matrix(0.5377 -0.8431 0.8431 0.5377 -160.8792 185.9613)" class="st2" cx="89.1" cy="239.7" rx="2.8" ry="1.1"/>
	
		<ellipse id="dot_21_" transform="matrix(0.1314 -0.9913 0.9913 0.1314 54.2903 387.3542)" class="st2" cx="248.2" cy="162.7" rx="1" ry="2.9"/>
	
		<ellipse id="dot_23_" transform="matrix(0.1476 -0.989 0.989 0.1476 -147.3134 334.4473)" class="st2" cx="120.4" cy="252.7" rx="2.8" ry="1.1"/>
	
		<ellipse id="dot_29_" transform="matrix(0.7625 -0.647 0.647 0.7625 -96.3736 87.6727)" class="st2" cx="71.2" cy="175.1" rx="2.9" ry="1"/>
	
		<ellipse id="dot_30_" transform="matrix(0.5377 -0.8431 0.8431 0.5377 -129.1845 173.6884)" class="st2" cx="93.8" cy="204.6" rx="2.8" ry="1.1"/>
	
		<ellipse id="dot_31_" transform="matrix(0.1476 -0.989 0.989 0.1476 -115.4154 314.2329)" class="st2" cx="124.6" cy="224.1" rx="2.8" ry="1.1"/>
	
		<ellipse id="dot_34_" transform="matrix(0.387 -0.9221 0.9221 0.387 -19.312 304.5785)" class="st2" cx="219.4" cy="166.8" rx="1" ry="2.9"/>
	
		<ellipse id="dot_35_" transform="matrix(0.6204 -0.7843 0.7843 0.6204 -71.2343 238.0974)" class="st2" cx="210.3" cy="192.6" rx="1" ry="2.9"/>
	
		<ellipse id="dot_36_" transform="matrix(0.8796 -0.4758 0.4758 0.8796 -79.7056 112.8447)" class="st2" cx="183" cy="213.9" rx="1.1" ry="2.8"/>
	
		<ellipse id="dot_37_" transform="matrix(0.9392 -0.3434 0.3434 0.9392 -68.4058 66.9749)" class="st2" cx="154.9" cy="226.6" rx="1.1" ry="2.8"/>
	
		<ellipse id="dot_39_" transform="matrix(0.387 -0.9221 0.9221 0.387 -34.5283 277.4503)" class="st2" cx="191.4" cy="164.7" rx="1" ry="2.9"/>
	
		<ellipse id="dot_40_" transform="matrix(0.1476 -0.989 0.989 0.1476 -73.938 294.1945)" class="st2" cx="133.7" cy="190" rx="2.8" ry="1.1"/>
	
		<ellipse id="dot_47_" transform="matrix(0.8796 -0.4758 0.4758 0.8796 -67.8865 102.8024)" class="st2" cx="169.1" cy="185.5" rx="1.1" ry="2.8"/>
	
		<ellipse id="dot_48_" transform="matrix(0.7625 -0.647 0.647 0.7625 -79.4448 115.0327)" class="st2" cx="116.9" cy="165.7" rx="2.9" ry="1"/>
	
		<ellipse id="dot_52_" transform="matrix(0.6204 -0.7843 0.7843 0.6204 -67.0787 184.6458)" class="st2" cx="157.2" cy="161.6" rx="1" ry="2.9"/>
	
		<ellipse id="dot_45_" transform="matrix(0.1432 -0.9897 0.9897 0.1432 -62.0281 221.7132)" class="st2" cx="97" cy="146.7" rx="1" ry="2.9"/>
	
		<ellipse id="dot_46_" transform="matrix(0.1432 -0.9897 0.9897 0.1432 -89.1943 186.0848)" class="st2" cx="62.9" cy="144.6" rx="1" ry="2.9"/>
	
		<ellipse id="dot_49_" transform="matrix(0.1432 -0.9897 0.9897 0.1432 21.6327 318.3472)" class="st2" cx="194.7" cy="146.7" rx="1" ry="2.9"/>
	
		<ellipse id="dot_50_" transform="matrix(0.1432 -0.9897 0.9897 0.1432 50.6988 349.7959)" class="st2" cx="227.4" cy="145.6" rx="1" ry="2.9"/>
</g>
</svg>
