<svg id="b3af8b46-143e-46a1-a350-ad5b4bfb0c70" data-name="watermelon" xmlns="http://www.w3.org/2000/svg" viewBox="0 0 280.4 280.4"><defs><style>.f788ceb8-1530-4afc-a64e-72cf8ba9f1fb{fill:#009245;}.f788ceb8-1530-4afc-a64e-72cf8ba9f1fb,.fc4dd770-a5ce-45c8-beab-eb7e97897a85{stroke:#000;stroke-miterlimit:10;}.b6a5dee8-28c2-4ddb-9b9e-ee93c59a5aba{fill:#dd0a37;}</style></defs><title>watermelon</title><circle id="a4780a45-9656-40e1-a553-feca44b18e78" data-name="cover layer" class="f788ceb8-1530-4afc-a64e-72cf8ba9f1fb" cx="140.2" cy="140.2" r="139.7"/><circle id="e201261a-a5b3-406c-b4ed-9764d2fd0999" data-name="red layer" class="b6a5dee8-28c2-4ddb-9b9e-ee93c59a5aba" cx="141.3" cy="139.5" r="119.9"/><g id="bd0e4e7f-486e-424d-b300-92b5ebceab22" data-name="seed"><ellipse id="a3b4b138-221b-42fe-9e1f-1ad42a005a46" data-name="dot" class="fc4dd770-a5ce-45c8-beab-eb7e97897a85" cx="51.3" cy="197.1" rx="2.9" ry="1" transform="translate(-118 72.8) rotate(-40.3)"/><ellipse id="abfe5e86-9ad3-470d-81c0-1156b7f8c2dc" data-name="dot" class="fc4dd770-a5ce-45c8-beab-eb7e97897a85" cx="53.2" cy="96.3" rx="1" ry="2.8" transform="translate(-57.7 69.1) rotate(-50.6)"/><ellipse id="a43b2696-cfe5-49fa-a1ef-70934246840d" data-name="dot" class="fc4dd770-a5ce-45c8-beab-eb7e97897a85" cx="69.8" cy="75" rx="1" ry="2.8" transform="translate(-35.2 74.1) rotate(-50.6)"/><ellipse id="a4a9c91b-2039-4ba8-9346-d7d564541661" data-name="dot" class="fc4dd770-a5ce-45c8-beab-eb7e97897a85" cx="207.7" cy="61.3" rx="2.8" ry="1" transform="translate(2.8 131.7) rotate(-37.4)"/><ellipse id="fff4ab78-a331-443e-a5bf-09b2997c2814" data-name="dot" class="fc4dd770-a5ce-45c8-beab-eb7e97897a85" cx="183.1" cy="48.1" rx="2.8" ry="1" transform="translate(49.1 177.2) rotate(-60.8)"/><ellipse id="b517a972-95b0-4275-b33f-796f799b5c8c" data-name="dot" class="fc4dd770-a5ce-45c8-beab-eb7e97897a85" cx="225" cy="82.3" rx="2.9" ry="1" transform="translate(-15.6 103.3) rotate(-26.8)"/><ellipse id="f59ad944-5669-4d99-8754-db5b6eab3299" data-name="dot" class="fc4dd770-a5ce-45c8-beab-eb7e97897a85" cx="155.8" cy="38.8" rx="2.7" ry="1" transform="translate(54.5 158.3) rotate(-66.1)"/><ellipse id="e1b218d1-d375-47e5-9db6-65ca4921bb83" data-name="dot" class="fc4dd770-a5ce-45c8-beab-eb7e97897a85" cx="41.8" cy="125.5" rx="1" ry="2.9" transform="translate(-91.1 141.7) rotate(-81.8)"/><ellipse id="b412e277-5cb9-4f71-bf3d-8865ba7c7400" data-name="dot" class="fc4dd770-a5ce-45c8-beab-eb7e97897a85" cx="240.5" cy="104.4" rx="2.9" ry="1" transform="translate(-24.3 91.1) rotate(-22.1)"/><ellipse id="f144075a-ecc6-4e88-ad2d-c8ecacdaec9b" data-name="dot" class="fc4dd770-a5ce-45c8-beab-eb7e97897a85" cx="90.7" cy="55.1" rx="1" ry="2.8" transform="translate(-18 51.8) rotate(-33.4)"/><ellipse id="f8b83dbd-f0ac-474a-a16f-1632efe689e5" data-name="dot" class="fc4dd770-a5ce-45c8-beab-eb7e97897a85" cx="248.2" cy="129.5" rx="2.9" ry="1" transform="matrix(0.99, -0.13, 0.13, 0.99, -17.18, 25.48)"/><ellipse id="aa774b3f-3d31-453c-9af3-1b79ac1c4af7" data-name="dot" class="fc4dd770-a5ce-45c8-beab-eb7e97897a85" cx="121.6" cy="42.6" rx="1.1" ry="2.7" transform="translate(-7.8 11.9) rotate(-8.8)"/><ellipse id="b1eba185-67e5-45a2-953c-54ffa6f9e00b" data-name="dot" class="fc4dd770-a5ce-45c8-beab-eb7e97897a85" cx="72.9" cy="117.5" rx="1" ry="2.8" transform="translate(-66.9 92) rotate(-50.6)"/><ellipse id="b3ccac7d-f089-42f5-b3f3-cfa6dd2ec5ec" data-name="dot" class="fc4dd770-a5ce-45c8-beab-eb7e97897a85" cx="95.3" cy="89" rx="1" ry="2.8" transform="translate(-35.9 59.9) rotate(-33.4)"/><ellipse id="b807440a-d548-4301-a1e0-3a114e0218a4" data-name="dot" class="fc4dd770-a5ce-45c8-beab-eb7e97897a85" cx="125.8" cy="70.2" rx="1.1" ry="2.7" transform="translate(-11.9 12.8) rotate(-8.8)"/><ellipse id="f53aeaad-5cd2-4a50-8d90-4a722b97221e" data-name="dot" class="fc4dd770-a5ce-45c8-beab-eb7e97897a85" cx="219.7" cy="125.5" rx="2.9" ry="1" transform="translate(-33.8 84.8) rotate(-22.1)"/><ellipse id="f61446e5-89ca-4e87-85b8-f5821177b6cb" data-name="dot" class="fc4dd770-a5ce-45c8-beab-eb7e97897a85" cx="210.7" cy="100.6" rx="2.8" ry="1" transform="translate(-20.5 141.6) rotate(-37.4)"/><ellipse id="fc45619b-c939-4179-a769-659537f7f4d1" data-name="dot" class="fc4dd770-a5ce-45c8-beab-eb7e97897a85" cx="183.7" cy="80.1" rx="2.8" ry="1" transform="translate(21.4 194.1) rotate(-60.8)"/><ellipse id="fe28155d-fbfd-4f63-b55a-16edfcd986ce" data-name="dot" class="fc4dd770-a5ce-45c8-beab-eb7e97897a85" cx="155.8" cy="67.7" rx="2.7" ry="1" transform="translate(34.6 182.3) rotate(-69.3)"/><ellipse id="a6b7b4a5-4d6f-4f63-aa9c-9e0d10a18862" data-name="dot" class="fc4dd770-a5ce-45c8-beab-eb7e97897a85" cx="192" cy="127.6" rx="2.9" ry="1" transform="translate(-36.6 74.5) rotate(-22.1)"/><ellipse id="bfc780b0-9b30-4c59-bf0f-b169a8ec61df" data-name="dot" class="fc4dd770-a5ce-45c8-beab-eb7e97897a85" cx="134.8" cy="103.1" rx="1.1" ry="2.7" transform="translate(-16.9 14.6) rotate(-8.8)"/><ellipse id="a84833e7-2447-4ab2-8092-98e976ede1b7" data-name="dot" class="fc4dd770-a5ce-45c8-beab-eb7e97897a85" cx="169.9" cy="107.5" rx="2.8" ry="1" transform="translate(-9.5 196.1) rotate(-60.8)"/><ellipse id="e3f0ca4a-087b-410e-a676-648f37ad5423" data-name="dot" class="fc4dd770-a5ce-45c8-beab-eb7e97897a85" cx="107.3" cy="125.5" rx="1" ry="2.8" transform="translate(-60.5 121.5) rotate(-50.6)"/><ellipse id="afc10de0-0c2a-41ad-9c03-7a1fb3b9d16b" data-name="dot" class="fc4dd770-a5ce-45c8-beab-eb7e97897a85" cx="129.5" cy="136.8" rx="1" ry="2.8" transform="translate(-56.6 86.7) rotate(-33.4)"/><ellipse id="e555bb6b-571d-40e4-922f-bd9b5f3842bf" data-name="dot" class="fc4dd770-a5ce-45c8-beab-eb7e97897a85" cx="163.6" cy="138.7" rx="2.8" ry="1" transform="translate(-53.3 120.8) rotate(-37.4)"/><ellipse id="bb5e5fbb-7eff-4ae1-95b2-8964e1a70fcd" data-name="dot" class="fc4dd770-a5ce-45c8-beab-eb7e97897a85" cx="68.1" cy="219.1" rx="2.9" ry="1" transform="translate(-128.3 88.9) rotate(-40.3)"/><ellipse id="e7ec0e4d-7b95-47e9-86c6-af79443b8f0b" data-name="dot" class="fc4dd770-a5ce-45c8-beab-eb7e97897a85" cx="207.3" cy="233.3" rx="1" ry="2.9" transform="translate(-107 244) rotate(-51.7)"/><ellipse id="bab44ebf-0f43-468d-b549-c54755117a86" data-name="dot" class="fc4dd770-a5ce-45c8-beab-eb7e97897a85" cx="182.5" cy="247" rx="1.1" ry="2.8" transform="translate(-98.2 109.4) rotate(-28.4)"/><ellipse id="b3ee4bcb-b978-472b-a3e5-15bfba77fbb2" data-name="dot" class="fc4dd770-a5ce-45c8-beab-eb7e97897a85" cx="224.8" cy="211.6" rx="1" ry="2.9" transform="translate(-69.6 305.6) rotate(-62.4)"/><ellipse id="f0fb3c75-90d2-477f-ad74-d884f5e09835" data-name="dot" class="fc4dd770-a5ce-45c8-beab-eb7e97897a85" cx="154.9" cy="256.6" rx="1.1" ry="2.8" transform="translate(-91.3 74.6) rotate(-23.2)"/><ellipse id="b26827d9-f7f3-4f6e-a64f-6280988c0d34" data-name="dot" class="fc4dd770-a5ce-45c8-beab-eb7e97897a85" cx="39.9" cy="166.8" rx="2.9" ry="1" transform="translate(-26.9 0.5) rotate(-8.5)"/><ellipse id="abfc3320-d024-4d38-ab37-274c5aaa9606" data-name="dot" class="fc4dd770-a5ce-45c8-beab-eb7e97897a85" cx="240.4" cy="188.7" rx="1" ry="2.9" transform="translate(-29.3 330.2) rotate(-67.2)"/><ellipse id="e1581bd4-b520-4964-8e98-165a8069647f" data-name="dot" class="fc4dd770-a5ce-45c8-beab-eb7e97897a85" cx="89.1" cy="239.7" rx="2.8" ry="1.1" transform="translate(-163.6 178.8) rotate(-57.5)"/><ellipse id="f40fd2e7-f88a-4b20-a5fb-4def29f9f66b" data-name="dot" class="fc4dd770-a5ce-45c8-beab-eb7e97897a85" cx="248.2" cy="162.7" rx="1" ry="2.9" transform="matrix(0.13, -0.99, 0.99, 0.13, 51.59, 380.15)"/><ellipse id="a3b35a5d-f335-4ac1-a759-a7ff32bd6808" data-name="dot" class="fc4dd770-a5ce-45c8-beab-eb7e97897a85" cx="120.4" cy="252.7" rx="2.8" ry="1.1" transform="translate(-150 327.2) rotate(-81.5)"/><ellipse id="bb54a8e8-7421-49da-bf19-85629ac97a24" data-name="dot" class="fc4dd770-a5ce-45c8-beab-eb7e97897a85" cx="71.2" cy="175.1" rx="2.9" ry="1" transform="translate(-99.1 80.5) rotate(-40.3)"/><ellipse id="f1436df3-4820-45b8-a68b-840a8637d062" data-name="dot" class="fc4dd770-a5ce-45c8-beab-eb7e97897a85" cx="93.8" cy="204.6" rx="2.8" ry="1.1" transform="translate(-131.9 166.4) rotate(-57.5)"/><ellipse id="b4049643-1c7d-465d-9ea9-30cc7cc47fa7" data-name="dot" class="fc4dd770-a5ce-45c8-beab-eb7e97897a85" cx="124.6" cy="224.1" rx="2.8" ry="1.1" transform="translate(-118.1 307.1) rotate(-81.5)"/><ellipse id="f0ccc248-3fc1-4899-a7b0-44012fe13533" data-name="dot" class="fc4dd770-a5ce-45c8-beab-eb7e97897a85" cx="219.4" cy="166.8" rx="1" ry="2.9" transform="translate(-22 297.4) rotate(-67.2)"/><ellipse id="a2d93a6e-7e05-4b2d-8225-301b698a520d" data-name="dot" class="fc4dd770-a5ce-45c8-beab-eb7e97897a85" cx="210.3" cy="192.6" rx="1" ry="2.9" transform="translate(-74 230.9) rotate(-51.7)"/><ellipse id="ab8ee53f-e47b-4a25-ab63-fe2bb583ff7c" data-name="dot" class="fc4dd770-a5ce-45c8-beab-eb7e97897a85" cx="183" cy="213.9" rx="1.1" ry="2.8" transform="translate(-82.4 105.6) rotate(-28.4)"/><ellipse id="b9d487a1-15ca-4e8e-9209-f186485bd45f" data-name="dot" class="fc4dd770-a5ce-45c8-beab-eb7e97897a85" cx="154.9" cy="226.6" rx="1.1" ry="2.8" transform="translate(-71.1 59.8) rotate(-20.1)"/><ellipse id="bb5172fd-e801-4688-80ed-66235f5c92d3" data-name="dot" class="fc4dd770-a5ce-45c8-beab-eb7e97897a85" cx="191.4" cy="164.7" rx="1" ry="2.9" transform="translate(-37.2 270.3) rotate(-67.2)"/><ellipse id="bda210ad-c7a8-46d6-9714-1cfebea9bfc9" data-name="dot" class="fc4dd770-a5ce-45c8-beab-eb7e97897a85" cx="133.7" cy="190" rx="2.8" ry="1.1" transform="translate(-76.7 287) rotate(-81.5)"/><ellipse id="fdb8c2db-e4b8-4ea7-93b3-c1951b215766" data-name="dot" class="fc4dd770-a5ce-45c8-beab-eb7e97897a85" cx="169.1" cy="185.5" rx="1.1" ry="2.8" transform="translate(-70.6 95.6) rotate(-28.4)"/><ellipse id="a4d41862-cac1-4b28-a2ff-d7def21f747d" data-name="dot" class="fc4dd770-a5ce-45c8-beab-eb7e97897a85" cx="116.9" cy="165.7" rx="2.9" ry="1" transform="translate(-82.2 107.8) rotate(-40.3)"/><ellipse id="be7ce3f2-d560-4ed6-8909-5beababa883b" data-name="dot" class="fc4dd770-a5ce-45c8-beab-eb7e97897a85" cx="157.2" cy="161.6" rx="1" ry="2.9" transform="translate(-69.8 177.4) rotate(-51.7)"/><ellipse id="a937cd8a-e6fa-4971-acc7-0aeba5f15541" data-name="dot" class="fc4dd770-a5ce-45c8-beab-eb7e97897a85" cx="97.1" cy="146.7" rx="1" ry="2.9" transform="translate(-64.8 214.6) rotate(-81.8)"/><ellipse id="b1371c29-189a-4dde-9310-a4825caf569f" data-name="dot" class="fc4dd770-a5ce-45c8-beab-eb7e97897a85" cx="62.9" cy="144.5" rx="1" ry="2.9" transform="translate(-91.8 178.9) rotate(-81.8)"/><ellipse id="bb8d4d75-85c5-4471-9224-25c75e5cecfc" data-name="dot" class="fc4dd770-a5ce-45c8-beab-eb7e97897a85" cx="194.7" cy="146.7" rx="1" ry="2.9" transform="translate(19 311.2) rotate(-81.8)"/><ellipse id="b46bf42c-fe9a-4e28-a330-108b784da378" data-name="dot" class="fc4dd770-a5ce-45c8-beab-eb7e97897a85" cx="227.4" cy="145.6" rx="1" ry="2.9" transform="translate(48 342.6) rotate(-81.8)"/></g></svg>